<?xml version="1.0" encoding="utf-8"?>
<!-- Generator: Adobe Illustrator 24.3.0, SVG Export Plug-In . SVG Version: 6.00 Build 0)  -->
<svg version="1.1" id="Layer_1" xmlns="http://www.w3.org/2000/svg" xmlns:xlink="http://www.w3.org/1999/xlink" x="0px" y="0px"
	 viewBox="0 0 68.9 69" style="enable-background:new 0 0 68.9 69;" xml:space="preserve">
<style type="text/css">
	.st0{fill:#F8F8F8;}
	.st1{fill:none;}
</style>
<path class="st0" d="M87.7-105.9c-1,0-1.9,0.4-2.5,1.1c-0.7,0.7-1.1,1.6-1.1,2.5c0,1,0.4,1.9,1.1,2.5c0.7,0.7,1.6,1.1,2.5,1.1
	c1,0,1.9-0.4,2.5-1.1c0.7-0.7,1.1-1.6,1.1-2.5c0-1-0.4-1.9-1.1-2.5C89.5-105.5,88.6-105.9,87.7-105.9z M87.7-108.3
	c1.6,0,3.1,0.6,4.2,1.8c1.1,1.1,1.8,2.7,1.8,4.2c0,1.6-0.6,3.1-1.8,4.2c-1.1,1.1-2.7,1.8-4.2,1.8c-1.6,0-3.1-0.6-4.2-1.8
	c-1.1-1.1-1.8-2.7-1.8-4.2c0-1.6,0.6-3.1,1.8-4.2C84.5-107.7,86.1-108.3,87.7-108.3 M94-110.1c0.4,0,0.8,0.2,1.1,0.4
	c0.3,0.3,0.4,0.7,0.4,1.1c0,0.4-0.2,0.8-0.4,1.1c-0.3,0.3-0.7,0.4-1.1,0.4c-0.4,0-0.8-0.2-1.1-0.4c-0.3-0.3-0.4-0.7-0.4-1.1
	c0-0.4,0.2-0.8,0.4-1.1C93.2-109.9,93.6-110.1,94-110.1z M82.4-111.9c-1.1,0-2.2,0.5-3.1,1.3c-0.8,0.8-1.3,1.9-1.3,3.1V-97
	c0,2.4,1.9,4.3,4.3,4.3h10.6c1.1,0,2.2-0.5,3.1-1.3c0.8-0.8,1.3-1.9,1.3-3.1v-10.6c0-2.4-1.9-4.3-4.3-4.3H82.4z M82.6-114.3h10.1
	c3.8,0,7,3.1,7,7v10.1c0,1.8-0.7,3.6-2,4.9c-1.3,1.3-3.1,2-4.9,2H82.6c-3.8,0-7-3.1-7-7v-10.1c0-1.8,0.7-3.6,2-4.9
	C79-113.6,80.8-114.3,82.6-114.3"/>
<path class="st0" d="M57-103.1c-1,0.4-2,0.7-3.1,0.9c1.1-0.7,1.9-1.7,2.3-2.9c-1,0.6-2.2,1-3.4,1.3c-1-1.1-2.4-1.7-3.9-1.7
	c-2.9,0-5.3,2.4-5.3,5.3c0,0.4,0,0.8,0.1,1.2c-4.4-0.2-8.4-2.3-11-5.5c-0.5,0.8-0.7,1.7-0.7,2.7c0,1.8,0.9,3.5,2.4,4.4
	c-0.9,0-1.7-0.2-2.4-0.6v0c0,2.6,1.8,4.7,4.3,5.2c-0.8,0.2-1.6,0.2-2.4,0.1c0.3,1.1,1,2,1.9,2.6c0.9,0.7,2,1,3.1,1
	c-1.9,1.5-4.2,2.3-6.6,2.3c-0.4,0-0.8,0-1.3-0.1c2.4,1.5,5.2,2.4,8.2,2.4c9.8,0,15.2-8.1,15.2-15.1c0-0.2,0-0.5,0-0.7
	C55.4-101.1,56.3-102,57-103.1z"/>
<path class="st0" d="M57.9,33.7c0-12.3-10-22.3-22.2-22.3s-22.2,10-22.2,22.3c0,10.8,7.7,19.8,17.8,21.9V40.3h-4.4v-6.7h4.4v-5.6
	c0-4.3,3.5-7.8,7.8-7.8h5.6V27h-4.4c-1.2,0-2.2,1-2.2,2.2v4.5h6.7v6.7h-6.7v15.5C49.1,54.7,57.9,45.2,57.9,33.7z"/>
<rect x="-36.3" y="-78" class="st1" width="173" height="58"/>
</svg>
