<?xml version="1.0" encoding="utf-8"?>
<!-- Generator: Adobe Illustrator 24.3.0, SVG Export Plug-In . SVG Version: 6.00 Build 0)  -->
<svg version="1.1" id="Layer_1" xmlns="http://www.w3.org/2000/svg" xmlns:xlink="http://www.w3.org/1999/xlink" x="0px" y="0px"
	 viewBox="0 0 68.9 69" style="enable-background:new 0 0 68.9 69;" xml:space="preserve">
<style type="text/css">
	.st0{fill:#F8F8F8;}
	.st1{fill:none;}
</style>
<path class="st0" d="M34.4,27.1c-1.8,0-3.5,0.7-4.8,2c-1.3,1.3-2,3-2,4.8c0,1.8,0.7,3.5,2,4.8c1.3,1.3,3,2,4.8,2
	c1.8,0,3.5-0.7,4.8-2c1.3-1.3,2-3,2-4.8c0-1.8-0.7-3.5-2-4.8C38,27.9,36.2,27.1,34.4,27.1z M34.4,22.6c3,0,5.9,1.2,8,3.3
	c2.1,2.1,3.3,5,3.3,8c0,3-1.2,5.9-3.3,8c-2.1,2.1-5,3.3-8,3.3c-3,0-5.9-1.2-8-3.3c-2.1-2.1-3.3-5-3.3-8c0-3,1.2-5.9,3.3-8
	C28.5,23.8,31.4,22.6,34.4,22.6 M46.4,19.2c0.8,0,1.5,0.3,2,0.8c0.5,0.5,0.8,1.3,0.8,2c0,0.8-0.3,1.5-0.8,2c-0.5,0.5-1.3,0.8-2,0.8
	c-0.8,0-1.5-0.3-2-0.8c-0.5-0.5-0.8-1.3-0.8-2c0-0.8,0.3-1.5,0.8-2C44.9,19.5,45.6,19.2,46.4,19.2z M24.5,15.8
	c-2.2,0-4.2,0.9-5.8,2.4c-1.5,1.5-2.4,3.6-2.4,5.8v20c0,4.5,3.7,8.2,8.2,8.2h20c2.2,0,4.2-0.9,5.8-2.4c1.5-1.5,2.4-3.6,2.4-5.8V24
	c0-4.5-3.7-8.2-8.2-8.2H24.5z M24.9,11.3H44c7.3,0,13.2,5.9,13.2,13.2v19.1c0,3.5-1.4,6.8-3.9,9.3c-2.5,2.5-5.8,3.9-9.3,3.9H24.9
	c-7.3,0-13.2-5.9-13.2-13.2V24.4c0-3.5,1.4-6.8,3.9-9.3C18.1,12.6,21.4,11.3,24.9,11.3"/>
<path class="st0" d="M21.7-51.3c-1.8,0.8-3.8,1.4-5.8,1.6c2.1-1.3,3.7-3.2,4.5-5.6c-2,1.2-4.2,2-6.5,2.5c-1.9-2-4.5-3.2-7.5-3.2
	c-5.6,0-10.1,4.5-10.1,10.1c0,0.8,0.1,1.6,0.3,2.3c-8.5-0.4-16-4.5-21-10.6c-0.9,1.5-1.4,3.2-1.4,5.1c0,3.5,1.8,6.6,4.5,8.4
	c-1.7,0-3.3-0.5-4.6-1.2v0.1c0,4.9,3.5,9,8.2,9.9c-1.5,0.4-3.1,0.5-4.6,0.2c0.6,2,1.9,3.8,3.6,5c1.7,1.3,3.8,2,5.9,2
	c-3.6,2.8-8.1,4.4-12.7,4.3c-0.8,0-1.6,0-2.4-0.1c4.5,2.9,9.9,4.6,15.6,4.6c18.7,0,29-15.4,29-28.8c0-0.4,0-0.9,0-1.3
	C18.6-47.5,20.3-49.3,21.7-51.3z"/>
<path class="st0" d="M147.2-22.2c0-12.3-10-22.3-22.2-22.3s-22.2,10-22.2,22.3c0,10.8,7.7,19.8,17.8,21.9v-15.2h-4.4v-6.7h4.4v-5.6
	c0-4.3,3.5-7.8,7.8-7.8h5.6v6.7h-4.4c-1.2,0-2.2,1-2.2,2.2v4.5h6.7v6.7h-6.7V0C138.4-1.1,147.2-10.6,147.2-22.2z"/>
<rect x="-36.3" y="-78" class="st1" width="173" height="58"/>
</svg>
