<?xml version="1.0" encoding="utf-8"?>
<!-- Generator: Adobe Illustrator 24.3.0, SVG Export Plug-In . SVG Version: 6.00 Build 0)  -->
<svg version="1.1" id="Layer_1" xmlns="http://www.w3.org/2000/svg" xmlns:xlink="http://www.w3.org/1999/xlink" x="0px" y="0px"
	 viewBox="0 0 68.9 69" style="enable-background:new 0 0 68.9 69;" xml:space="preserve">
<style type="text/css">
	.st0{fill:#F8F8F8;}
	.st1{fill:none;}
</style>
<path class="st0" d="M87.7-105.9c-1,0-1.9,0.4-2.5,1.1c-0.7,0.7-1.1,1.6-1.1,2.5c0,1,0.4,1.9,1.1,2.5c0.7,0.7,1.6,1.1,2.5,1.1
	c1,0,1.9-0.4,2.5-1.1c0.7-0.7,1.1-1.6,1.1-2.5c0-1-0.4-1.9-1.1-2.5C89.5-105.5,88.6-105.9,87.7-105.9z M87.7-108.3
	c1.6,0,3.1,0.6,4.2,1.8c1.1,1.1,1.8,2.7,1.8,4.2c0,1.6-0.6,3.1-1.8,4.2c-1.1,1.1-2.7,1.8-4.2,1.8c-1.6,0-3.1-0.6-4.2-1.8
	c-1.1-1.1-1.8-2.7-1.8-4.2c0-1.6,0.6-3.1,1.8-4.2C84.5-107.7,86.1-108.3,87.7-108.3 M94-110.1c0.4,0,0.8,0.2,1.1,0.4
	c0.3,0.3,0.4,0.7,0.4,1.1c0,0.4-0.2,0.8-0.4,1.1c-0.3,0.3-0.7,0.4-1.1,0.4c-0.4,0-0.8-0.2-1.1-0.4c-0.3-0.3-0.4-0.7-0.4-1.1
	c0-0.4,0.2-0.8,0.4-1.1C93.2-109.9,93.6-110.1,94-110.1z M82.4-111.9c-1.1,0-2.2,0.5-3.1,1.3c-0.8,0.8-1.3,1.9-1.3,3.1V-97
	c0,2.4,1.9,4.3,4.3,4.3h10.6c1.1,0,2.2-0.5,3.1-1.3c0.8-0.8,1.3-1.9,1.3-3.1v-10.6c0-2.4-1.9-4.3-4.3-4.3H82.4z M82.6-114.3h10.1
	c3.8,0,7,3.1,7,7v10.1c0,1.8-0.7,3.6-2,4.9c-1.3,1.3-3.1,2-4.9,2H82.6c-3.8,0-7-3.1-7-7v-10.1c0-1.8,0.7-3.6,2-4.9
	C79-113.6,80.8-114.3,82.6-114.3"/>
<path class="st0" d="M60.9,19.2c-1.8,0.8-3.8,1.4-5.8,1.6c2.1-1.3,3.7-3.2,4.5-5.6c-2,1.2-4.2,2-6.5,2.5c-1.9-2-4.5-3.2-7.5-3.2
	c-5.6,0-10.1,4.5-10.1,10.1c0,0.8,0.1,1.6,0.3,2.3c-8.5-0.4-16-4.5-21-10.6c-0.9,1.5-1.4,3.2-1.4,5.1c0,3.5,1.8,6.6,4.5,8.4
	c-1.7,0-3.3-0.5-4.6-1.2v0.1c0,4.9,3.5,9,8.2,9.9c-1.5,0.4-3.1,0.5-4.6,0.2c0.6,2,1.9,3.8,3.6,5c1.7,1.3,3.8,2,5.9,2
	c-3.6,2.8-8.1,4.4-12.7,4.3c-0.8,0-1.6,0-2.4-0.1c4.5,2.9,9.9,4.6,15.6,4.6c18.7,0,29-15.4,29-28.8c0-0.4,0-0.9,0-1.3
	C57.9,23,59.6,21.2,60.9,19.2z"/>
<path class="st0" d="M147.2-22.2c0-12.3-10-22.3-22.2-22.3s-22.2,10-22.2,22.3c0,10.8,7.7,19.8,17.8,21.9v-15.2h-4.4v-6.7h4.4v-5.6
	c0-4.3,3.5-7.8,7.8-7.8h5.6v6.7h-4.4c-1.2,0-2.2,1-2.2,2.2v4.5h6.7v6.7h-6.7V0C138.4-1.1,147.2-10.6,147.2-22.2z"/>
<rect x="-36.3" y="-78" class="st1" width="173" height="58"/>
</svg>
